<svg width="10" height="16" viewBox="0 0 9 16" fill="white" xmlns="http://www.w3.org/2000/svg">

    <path  d="M2.44868 1.68377L2.13246 0.735089L0.235089 1.36754L0.551317 2.31623L2.44868 1.68377ZM0.551317 13.6838L0.235089 14.6325L2.13246 15.2649L2.44868 14.3162L0.551317 13.6838ZM0.551317 2.31623C1.63043 5.55358 3.42182 7.25554 5.02114 8.12791C5.80927 8.5578 6.53035 8.77532 7.06301 8.88553C7.32961 8.94069 7.55039 8.96927 7.71081 8.98408C7.79109 8.99149 7.85649 8.99547 7.90521 8.99761C7.92959 8.99867 7.94981 8.99928 7.96568 8.99962C7.97361 8.99979 7.98045 8.99989 7.98618 8.99995C7.98904 8.99998 7.99163 9 7.99393 9.00001C7.99508 9.00002 7.99617 9.00002 7.99718 9.00003C7.99768 9.00003 7.99839 9.00003 7.99864 9.00003C7.99932 9.00003 7.99999 9.00003 8 8.00003C8.00001 7.00003 8.00064 7.00003 8.00126 7.00003C8.00144 7.00003 8.00205 7.00003 8.00241 7.00003C8.00315 7.00004 8.00382 7.00004 8.00443 7.00004C8.00564 7.00005 8.00659 7.00006 8.00728 7.00006C8.00867 7.00008 8.00903 7.00009 8.00838 7.00008C8.0071 7.00005 8.00181 6.99992 7.99273 6.99952C7.97457 6.99873 7.94133 6.99685 7.89466 6.99254C7.80117 6.98391 7.65477 6.96561 7.46824 6.92702C7.09465 6.84972 6.56573 6.69224 5.97886 6.37212C4.82818 5.74447 3.36957 4.44642 2.44868 1.68377L0.551317 2.31623ZM8 8.00003C8.00001 7.00003 7.99934 7.00003 7.99865 7.00003C7.9984 7.00003 7.99769 7.00003 7.99719 7.00003C7.99618 7.00004 7.9951 7.00004 7.99395 7.00005C7.99164 7.00006 7.98906 7.00008 7.98619 7.00011C7.98047 7.00017 7.97362 7.00027 7.96569 7.00044C7.94983 7.00078 7.9296 7.00139 7.90523 7.00245C7.8565 7.00459 7.7911 7.00857 7.71082 7.01598C7.5504 7.03079 7.32962 7.05936 7.06303 7.11451C6.53036 7.22472 5.80928 7.44223 5.02115 7.87212C3.42182 8.74447 1.63044 10.4464 0.551317 13.6838L2.44868 14.3162C3.36956 11.5536 4.82818 10.2555 5.97885 9.62791C6.56572 9.30781 7.09464 9.15033 7.46822 9.07304C7.65475 9.03445 7.80116 9.01614 7.89464 9.00752C7.94132 9.00321 7.97455 9.00133 7.99272 9.00054C8.0018 9.00014 8.00708 9.00001 8.00837 8.99999C8.00901 8.99997 8.00866 8.99998 8.00727 9C8.00657 9.00001 8.00562 9.00001 8.00441 9.00002C8.00381 9.00002 8.00314 9.00003 8.0024 9.00003C8.00203 9.00003 8.00143 9.00003 8.00125 9.00003C8.00063 9.00003 7.99999 9.00003 8 8.00003Z"></path>
</svg>