<svg width="80" height="60" viewBox="0 0 70 20" fill="#BF2B45" xmlns="http://www.w3.org/2000/svg">
    <path fill-rule="evenodd" clip-rule="evenodd"
          d="M5.56001 1.68355L5.87624 0.734863L7.77361 1.36732L7.45738 2.316C6.72661 4.50831 5.6692 5.99651 4.566 6.99977H47.5087V8.99977H4.56598C5.66919 10.003 6.72661 11.4912 7.45738 13.6835L7.77361 14.6322L5.87624 15.2647L5.56001 14.316C4.63913 11.5534 3.18052 10.2553 2.02985 9.62769C1.44298 9.30758 0.914055 9.1501 0.540474 9.07281C0.353943 9.03422 0.207539 9.01592 0.114052 9.00729C0.067379 9.00298 0.0341454 9.00111 0.015976 9.00031L0.00143051 8.99977L0.00428391 8.99979L0.00629807 8.9998L0.0074501 8.9998C0.00806808 8.99981 0.00870514 8.99981 0.00869751 7.99981C0.00868988 6.99981 0.00805664 6.99981 0.00743866 6.99981L0.00628281 6.99981L0.00427246 6.99982L0.00141525 6.99984C3.05176e-05 6.99985 -0.000328064 6.99986 0.000312805 6.99985M0.00141525 6.99984L0.0159607 6.9993C0.0341339 6.9985 0.0673676 6.99663 0.11404 6.99232C0.207527 6.98369 0.353931 6.96538 0.540462 6.92679C0.914047 6.8495 1.44297 6.69201 2.02984 6.3719C3.18052 5.74425 4.63913 4.44619 5.56001 1.68355"></path>
</svg>